<?xml version="1.0" encoding="utf-8"?>
<!-- Generator: Adobe Illustrator 16.0.0, SVG Export Plug-In . SVG Version: 6.00 Build 0)  -->
<!DOCTYPE svg PUBLIC "-//W3C//DTD SVG 1.1//EN" "http://www.w3.org/Graphics/SVG/1.1/DTD/svg11.dtd">
<svg version="1.1" id="Layer_1" xmlns="http://www.w3.org/2000/svg" xmlns:xlink="http://www.w3.org/1999/xlink" x="0px" y="0px"
	 width="870px" height="80.66px" viewBox="0 0 870 80.66" enable-background="new 0 0 870 80.66" xml:space="preserve">
<g>
	<path fill="#3F4055" d="M174.174,80.66c24.064,0,41.54-18.16,41.54-40.331v-0.223C215.714,17.937,198.461,0,174.397,0
		c-24.064,0-41.54,18.16-41.54,40.329v0.224C132.857,62.722,150.11,80.66,174.174,80.66 M151.429,40.106
		c0-13.368,8.931-24.287,22.745-24.287s22.969,11.143,22.969,24.51v0.224c0,13.368-8.931,24.287-22.745,24.287
		s-22.969-11.142-22.969-24.511V40.106z"/>
	<polygon fill="#3F4055" points="304.719,79.191 336.247,0.62 317.754,0.62 297.366,55.544 276.979,0.62 258.038,0.62 
		289.567,79.191 	"/>
	<rect x="388.571" y="0.62" fill="#3F4055" width="17.143" height="78.571"/>
	<path fill="#3F4055" d="M535.714,40.329v-0.223c0-21.946-17.095-39.487-41.605-39.487h-29.822v78.571h29.822
		C518.619,79.191,535.714,62.277,535.714,40.329 M481.429,16.334h12.68c14.037,0,24.463,10.181,24.463,23.995v0.224
		c0,13.814-10.426,22.924-24.463,22.924h-12.68V16.334z"/>
	<rect x="590" y="0.62" fill="#3F4055" width="18.571" height="78.571"/>
	<path fill="#3F4055" d="M684.166,62.048h32.977l7.131,17.143h17.937L708.788,0.62h-15.821l-33.422,78.571h17.492L684.166,62.048z
		 M700.654,21.043l10.361,25.291h-20.723L700.654,21.043z"/>
	<polygon fill="#3F4055" points="18.571,28.408 39.352,62.048 39.797,62.048 61.429,28.743 61.429,79.191 78.571,79.191 
		78.571,0.62 59.852,0.62 39.352,33.866 18.612,1.022 0,27.909 0,79.191 18.571,79.191 	"/>
	<polygon fill="#3F4055" points="808.571,28.743 830.144,62.048 830.59,62.048 852.857,28.41 852.857,79.324 870,54.216 870,0.62 
		851.088,0.62 830.59,33.597 810.089,0.62 791.429,0.62 791.429,79.191 808.571,79.191 	"/>
</g>
</svg>
